<svg width="400" height="400" viewBox="0 0 400 400" fill="none" xmlns="http://www.w3.org/2000/svg">
<path fill-rule="evenodd" clip-rule="evenodd" d="M264.287 193.434C275.378 197.676 287.417 200 300 200C355.228 200 400 155.228 400 100C400 44.7715 355.228 0 300 0C244.772 0 200 44.7715 200 100C200 123.008 207.77 144.201 220.83 161.099C211.015 166.512 200.271 171.913 188.82 177.639L187.378 178.36C170.666 186.714 152.376 195.857 135.713 206.566C124.622 202.324 112.583 200 100 200C44.7715 200 0 244.772 0 300C0 355.228 44.7715 400 100 400C155.228 400 200 355.228 200 300C200 276.992 192.23 255.799 179.17 238.901C188.985 233.488 199.729 228.087 211.18 222.361L212.622 221.64C229.334 213.286 247.623 204.143 264.287 193.434ZM138.484 268.077C129.313 257.033 115.478 250 100 250C96.1219 250 92.347 250.441 88.7227 251.277C66.5397 256.391 50 276.264 50 300C50 327.614 72.3858 350 100 350C127.614 350 150 327.614 150 300C150 287.864 145.676 276.737 138.484 268.077ZM350 100C350 123.736 333.46 143.609 311.277 148.723C307.653 149.559 303.878 150 300 150C284.522 150 270.687 142.967 261.516 131.923C254.324 123.263 250 112.136 250 100C250 72.3858 272.386 50 300 50C327.614 50 350 72.3858 350 100Z" fill="black"/>
</svg>
