<svg width="400" height="400" viewBox="0 0 400 400" fill="none" xmlns="http://www.w3.org/2000/svg">
<rect width="400" height="400" fill="white"/>
<path fill-rule="evenodd" clip-rule="evenodd" d="M240.179 195.896C247.111 198.548 254.636 200 262.5 200C297.018 200 325 172.018 325 137.5C325 102.982 297.018 75 262.5 75C227.982 75 200 102.982 200 137.5C200 151.88 204.856 165.126 213.019 175.687C206.884 179.07 200.17 182.446 193.012 186.024L192.111 186.475C181.666 191.696 170.235 197.41 159.821 204.104C152.889 201.452 145.364 200 137.5 200C102.982 200 75 227.982 75 262.5C75 297.018 102.982 325 137.5 325C172.018 325 200 297.018 200 262.5C200 248.12 195.144 234.874 186.981 224.313C193.116 220.93 199.83 217.554 206.988 213.976L207.889 213.525C218.334 208.304 229.765 202.59 240.179 195.896ZM161.553 242.548C155.821 235.645 147.174 231.25 137.5 231.25C135.076 231.25 132.717 231.526 130.452 232.048C116.587 235.244 106.25 247.665 106.25 262.5C106.25 279.759 120.241 293.75 137.5 293.75C154.759 293.75 168.75 279.759 168.75 262.5C168.75 254.915 166.048 247.961 161.553 242.548ZM293.75 137.5C293.75 152.335 283.413 164.756 269.548 167.952C267.283 168.474 264.924 168.75 262.5 168.75C252.826 168.75 244.179 164.355 238.447 157.452C233.953 152.039 231.25 145.085 231.25 137.5C231.25 120.241 245.241 106.25 262.5 106.25C279.759 106.25 293.75 120.241 293.75 137.5Z" fill="black"/>
</svg>
